<?xml version="1.0" encoding="UTF-8"?>
<svg version="1.1" xmlns="http://www.w3.org/2000/svg" width="902" height="902">
<path d="M0 0 C297.66 0 595.32 0 902 0 C902 297.66 902 595.32 902 902 C604.34 902 306.68 902 0 902 C0 604.34 0 306.68 0 0 Z " fill="#232F3E" transform="translate(0,0)"/>
<path d="M0 0 C2.57684973 1.33699077 4.93912518 2.69693548 7.375 4.25 C54.4251944 32.93594814 108.87629708 53.8329518 162.76953125 65.078125 C166.11734032 65.78251904 169.42421302 66.60826035 172.73828125 67.45703125 C188.60573569 71.45656059 204.86205262 73.97449217 221.0625 76.1875 C222.16964355 76.34210693 223.27678711 76.49671387 224.41748047 76.65600586 C247.87272667 79.72939435 271.22652679 80.3013644 294.83843994 80.19561768 C297.90682462 80.18472439 300.97516506 80.18515201 304.04356575 80.18575573 C307.06032512 80.18548088 310.0770571 80.17995221 313.09380722 80.17275429 C314.50403514 80.16963567 315.91426606 80.16761676 317.32449722 80.16686058 C330.49529476 80.1520217 343.60772713 79.6247123 356.671875 77.87890625 C357.48642151 77.77408432 358.30096802 77.66926239 359.14019775 77.56126404 C360.83060235 77.34270731 362.52069178 77.12169847 364.21044922 76.89819336 C366.76067284 76.5610892 369.31184365 76.23207387 371.86328125 75.90429688 C388.60027692 73.81585711 388.60027692 73.81585711 405 70 C408.88430271 69.16993187 412.78667558 68.43546061 416.6875 67.6875 C433.50960224 64.37925954 449.8789033 60.24673895 466.17089844 54.91699219 C469.47553719 53.84586489 472.78813573 52.80143222 476.1015625 51.7578125 C478.60942496 50.96369941 481.11723757 50.1694289 483.625 49.375 C484.8109375 49.0027832 485.996875 48.63056641 487.21875 48.24707031 C493.68522466 46.18505671 499.85766573 43.88100452 506 41 C509.31192458 39.60957102 512.65210274 38.30112599 516 37 C516.93457031 36.62359375 517.86914062 36.2471875 518.83203125 35.859375 C524.77563 33.55023403 529.99844629 31.5940487 536.3125 33.8125 C539.13253743 35.79697079 539.96149381 37.83955755 540.75 41.125 C539.24352085 48.90847561 531.71381757 52.86335096 525.515625 57.11328125 C509.72698029 67.68972941 493.13417944 76.80660236 476 85 C475.2771582 85.34885254 474.55431641 85.69770508 473.80957031 86.05712891 C453.97349694 95.55711502 433.08240357 102.79227075 412 109 C410.83082031 109.35578125 409.66164063 109.7115625 408.45703125 110.078125 C401.21288372 112.23287698 393.9909122 113.90279662 386.5703125 115.2890625 C383.38776668 115.92278607 380.26121129 116.68283809 377.1171875 117.48242188 C348.91124542 124.37778594 319.8540428 125.51161671 290.96392822 125.3225708 C288.15629326 125.30903509 285.34881373 125.31443237 282.54116058 125.31943703 C266.9324756 125.34042458 251.50770053 124.90610272 236 123 C234.80552246 122.86376221 233.61104492 122.72752441 232.38037109 122.5871582 C229.49959228 122.24980796 226.62500386 121.88305322 223.75 121.5 C222.82316406 121.38269531 221.89632812 121.26539063 220.94140625 121.14453125 C215.99229461 120.495353 211.15244025 119.66628608 206.29199219 118.53125 C203.81108634 117.9562126 201.3223519 117.43595931 198.828125 116.921875 C139.28921931 104.48997252 81.81998141 79.44105093 33 43 C32.32727051 42.49855469 31.65454102 41.99710938 30.96142578 41.48046875 C21.36558576 34.29833308 12.02999416 26.88180947 3 19 C2.03707031 18.16082031 1.07414063 17.32164062 0.08203125 16.45703125 C-7.85291697 9.43809437 -7.85291697 9.43809437 -10 6 C-9.8125 2.8125 -9.8125 2.8125 -9 0 C-5.79743534 -1.60128233 -3.4466362 -0.74408032 0 0 Z " fill="#FD9801" transform="translate(151,507)"/>
<path d="M0 0 C1.23685547 -0.02449219 2.47371094 -0.04898437 3.74804688 -0.07421875 C4.94107422 -0.07808594 6.13410156 -0.08195312 7.36328125 -0.0859375 C8.45552002 -0.09415527 9.54775879 -0.10237305 10.6730957 -0.11083984 C14.41004207 0.4914541 16.02628066 1.72466921 18.6875 4.375 C21.27201728 10.08298603 22.77296467 16.06342254 24.3125 22.125 C24.5604834 23.08728516 24.8084668 24.04957031 25.06396484 25.04101562 C27.9139649 36.15275575 30.67973959 47.28654547 33.43994141 58.42089844 C35.39705839 66.30401052 37.41908477 74.16380965 39.52685547 82.00830078 C41.93233138 91.01345017 44.23129467 100.04696827 46.54345703 109.07641602 C47.14466689 111.42067476 47.74789125 113.7644177 48.35302734 116.10766602 C49.23473317 119.52244017 50.11023864 122.93875018 50.984375 126.35546875 C51.25618591 127.40333054 51.52799683 128.45119232 51.80804443 129.5308075 C52.17908295 130.98931877 52.17908295 130.98931877 52.55761719 132.47729492 C52.77649597 133.32917892 52.99537476 134.18106293 53.22088623 135.0587616 C53.6875 137.375 53.6875 137.375 53.6875 141.375 C54.3475 141.375 55.0075 141.375 55.6875 141.375 C55.81778595 140.212034 55.9480719 139.04906799 56.08230591 137.8508606 C56.59685128 133.75142726 57.42259826 129.78516575 58.37060547 125.76123047 C58.53860688 125.04308544 58.7066083 124.32494041 58.87970066 123.58503342 C59.4340815 121.2198041 59.99435516 118.85601329 60.5546875 116.4921875 C60.94990203 114.81122993 61.34475614 113.13018759 61.73927307 111.44906616 C62.79140741 106.9708997 63.84882191 102.4939979 64.90790939 98.01747131 C65.78058327 94.32798984 66.65142194 90.6380761 67.52234554 86.94818115 C69.03733231 80.52957924 70.55295073 74.11112902 72.07197571 67.69348145 C74.22033115 58.61398157 76.35469284 49.53169015 78.45129395 40.44009399 C79.44671167 36.12516633 80.45131286 31.81241257 81.45782471 27.50006104 C81.89937898 25.59726951 82.33642011 23.69342452 82.76873779 21.78851318 C83.35333219 19.21541078 83.95383604 16.6465499 84.55859375 14.078125 C84.71824112 13.35491058 84.87788849 12.63169617 85.04237366 11.88656616 C86.09485143 7.51185927 87.57388806 4.62790209 90.6875 1.375 C95.00202474 -0.78226237 100.76105091 0.14534975 105.5 0.125 C106.68916016 0.104375 107.87832031 0.08375 109.10351562 0.0625 C110.82538086 0.05476563 110.82538086 0.05476563 112.58203125 0.046875 C113.63237549 0.0375293 114.68271973 0.02818359 115.76489258 0.01855469 C119.26865708 0.44587873 120.96787683 1.11407029 123.6875 3.375 C127.17541667 9.5392754 128.22419823 16.58030527 129.69921875 23.4453125 C130.31377513 26.24479816 130.93474349 29.04284868 131.55615234 31.84082031 C131.7223964 32.59155508 131.88864046 33.34228985 132.05992222 34.11577415 C134.24604806 43.95016856 136.57477855 53.75113699 138.89453125 63.5546875 C139.35451307 65.50123371 139.81446368 67.44778729 140.27438354 69.39434814 C141.44384661 74.34185783 142.61488972 79.28899222 143.78637695 84.23602295 C145.68423163 92.25158589 147.57953258 100.26775283 149.47449303 108.2840004 C150.12859964 111.04982232 150.78357201 113.81543808 151.43867493 116.58102417 C151.84040587 118.27910833 152.24211502 119.97719766 152.64379883 121.67529297 C152.82197647 122.42644882 153.00015411 123.17760468 153.18373108 123.95152283 C153.68955331 126.09164061 154.1889239 128.23318393 154.6875 130.375 C154.87601721 131.16691868 155.06453442 131.95883736 155.25876427 132.77475357 C155.4423984 133.56476635 155.62603252 134.35477913 155.81523132 135.16873169 C156.06600701 136.23433917 156.06600701 136.23433917 156.32184887 137.32147408 C156.6875 139.375 156.6875 139.375 156.6875 143.375 C157.3475 143.375 158.0075 143.375 158.6875 143.375 C158.81640625 142.21742188 158.9453125 141.05984375 159.078125 139.8671875 C159.60402467 135.68021702 160.44572618 131.59955992 161.4375 127.5 C161.70300659 126.38685425 161.70300659 126.38685425 161.97387695 125.2512207 C163.34022011 119.60933486 164.88698041 114.02535703 166.47949219 108.44384766 C168.90797213 99.80343872 171.0291966 91.08580292 173.1875 82.375 C177.87111811 63.47887614 177.87111811 63.47887614 180.1875 55.375 C181.86449494 49.47231969 183.4104618 43.55126833 184.84765625 37.5859375 C185.24573118 35.95824462 185.64417802 34.33064266 186.04296875 32.703125 C186.83632423 29.45821811 187.61672108 26.21053062 188.390625 22.9609375 C188.76129008 21.43999963 189.13236734 19.91916214 189.50390625 18.3984375 C189.66423843 17.70946381 189.82457062 17.02049011 189.98976135 16.31063843 C193.03203873 4.01202261 193.03203873 4.01202261 197.65075684 1.16470337 C200.32510246 0.12778336 202.57610519 0.11579173 205.44140625 0.109375 C206.54291016 0.10679687 207.64441406 0.10421875 208.77929688 0.1015625 C209.92462891 0.10929687 211.06996094 0.11703125 212.25 0.125 C213.39919922 0.11726563 214.54839844 0.10953125 215.73242188 0.1015625 C216.83263672 0.10414063 217.93285156 0.10671875 219.06640625 0.109375 C220.57569702 0.11275879 220.57569702 0.11275879 222.11547852 0.11621094 C224.6875 0.375 224.6875 0.375 227.6875 2.375 C228.17403851 7.39848138 227.30748189 11.36672682 225.72265625 16.11328125 C225.25997978 17.52796158 224.79795369 18.9428547 224.33642578 20.35791016 C223.94550751 21.54081635 223.94550751 21.54081635 223.54669189 22.74761963 C221.8571507 27.91418066 220.24782369 33.10636755 218.62109375 38.29296875 C217.8812227 40.64269256 217.14098254 42.99230017 216.40039062 45.34179688 C216.0263208 46.52894287 215.65225098 47.71608887 215.2668457 48.93920898 C214.50391376 51.36013544 213.74089253 53.78103375 212.9777832 56.2019043 C211.8585008 59.75297097 210.73976335 63.30420899 209.62109375 66.85546875 C209.28556992 67.91936325 208.95004608 68.98325775 208.60435486 70.07939148 C206.5696909 76.53991688 204.56385548 83.00877525 202.57575989 89.48377991 C199.30206939 100.13939982 195.93635653 110.76676645 192.5859375 121.3984375 C192.21994446 122.55982239 191.85395142 123.72120728 191.47686768 124.91778564 C189.95242101 129.75472252 188.42786566 134.59162478 186.90234375 139.42822266 C185.77541957 143.00143184 184.64936296 146.57491351 183.5234375 150.1484375 C183.18275238 151.22781586 182.84206726 152.30719421 182.49105835 153.41928101 C182.16707062 154.44800323 181.84308289 155.47672546 181.50927734 156.53662109 C181.19980164 157.51677185 180.89032593 158.49692261 180.57147217 159.5067749 C179.46642419 163.09232484 178.44656816 166.70030356 177.45303345 170.31826782 C176.2653576 173.50915536 174.33721495 175.32147092 171.6875 177.375 C166.70118355 179.03710548 161.53370571 178.64340198 156.3125 178.6875 C155.17554688 178.71650391 154.03859375 178.74550781 152.8671875 178.77539062 C144.55816307 178.83878107 144.55816307 178.83878107 140.51953125 176.6875 C138.48070128 174.11396623 137.61114515 172.22860083 136.75 169.0625 C136.42773438 167.89847656 136.10546875 166.73445312 135.7734375 165.53515625 C135.60166992 164.87660645 135.42990234 164.21805664 135.25292969 163.53955078 C134.63820041 161.18627369 133.99525132 158.84160865 133.3515625 156.49609375 C129.93423787 143.86890095 127.0021792 131.14316629 124.1574707 118.37792969 C122.42672824 110.61462901 120.62122484 102.88536111 118.6484375 95.1796875 C117.44692774 90.4224903 116.31639736 85.64986182 115.1875 80.875 C113.68644279 74.5309739 112.15821742 68.19590006 110.5625 61.875 C108.84526337 55.06189856 107.23650514 48.22817427 105.6875 41.375 C102.80691796 49.43192435 100.82520455 57.66289123 98.8515625 65.9765625 C98.48696514 67.50050467 98.12208089 69.02437823 97.75692749 70.54818726 C96.99300106 73.73986674 96.23178469 76.93217601 95.47265625 80.125 C94.51666744 84.14534171 93.55515662 88.16433599 92.59178352 92.18291378 C88.9928903 107.20151164 85.40283215 122.21759433 82.21279907 137.32962036 C80.87847694 143.63963488 79.3153357 149.85047742 77.58984375 156.06640625 C76.44050195 160.28065953 75.45687024 164.52822761 74.49609375 168.7890625 C73.57392527 171.73821966 72.54903833 173.90139124 70.6875 176.375 C65.07032573 179.17260894 59.39495276 178.78077047 53.25 178.8125 C52.13044922 178.84537109 51.01089844 178.87824219 49.85742188 178.91210938 C40.6571599 178.97217043 40.6571599 178.97217043 37.02734375 176.12890625 C34.88760525 173.6105162 33.68095736 171.97955424 32.6875 168.875 C32.37425781 167.91078125 32.06101562 166.9465625 31.73828125 165.953125 C29.8958615 159.67930904 28.09144622 153.3958739 26.3203125 147.1015625 C23.93556381 138.67275908 21.34596878 130.30651449 18.77661133 121.93261719 C16.0677106 113.08390581 13.38000647 104.2287101 10.6875 95.375 C10.47292522 94.66946236 10.25835045 93.96392471 10.03727341 93.23700714 C6.96697949 83.14165432 3.89756865 73.04603344 0.82929134 62.95006752 C-0.54422515 58.43064242 -1.91797314 53.91128795 -3.29223633 49.39208984 C-4.64298586 44.95019334 -5.99316636 40.50812424 -7.34294701 36.06593323 C-7.85185979 34.39142285 -8.36097191 32.71697304 -8.87029457 31.04258728 C-9.57854385 28.71410355 -10.28606054 26.38539838 -10.9934082 24.05664062 C-11.19963806 23.37923325 -11.40586792 22.70182587 -11.61834717 22.00389099 C-12.1874009 20.12890452 -12.75007133 18.25198439 -13.3125 16.375 C-13.68517502 15.14019897 -14.05785004 13.90539795 -14.44181824 12.63317871 C-15.39951158 9.04939391 -15.60218319 6.06846064 -15.3125 2.375 C-11.54590638 -1.39159362 -5.0822989 0.0052476 0 0 Z " fill="#FDFDFD" transform="translate(345.3125,275.625)"/>
<path d="M0 0 C0.78036621 0.2676416 1.56073242 0.5352832 2.36474609 0.81103516 C17.10373805 6.0471349 26.20932643 14.2186492 33 28.3125 C33.556875 29.405625 34.11375 30.49875 34.6875 31.625 C38.88258924 43.4112031 39.41444461 54.67161712 39.34955978 67.03244019 C39.33560465 69.94445505 39.34238432 72.85580479 39.35440063 75.76782227 C39.38506433 84.03634358 39.38052819 92.30469961 39.36035156 100.57324219 C39.34935875 105.6600123 39.36277574 110.74627715 39.39024734 115.83297729 C39.39563775 117.75283502 39.3917543 119.67274488 39.37784958 121.59255981 C39.28368872 134.73837815 40.18734703 145.83797169 47.375 157.25 C49 160.3125 49 160.3125 49.3125 163.8125 C47.3297493 169.09983519 43.59196992 171.25844102 39 174.3125 C38.29746094 174.82425781 37.59492188 175.33601562 36.87109375 175.86328125 C33.60976872 178.12897672 31.33941484 179.2539802 27.375 179.9375 C23.01195487 179.12952868 20.75264485 177.66645077 18 174.3125 C15.83424005 171.04732756 13.81339762 167.75153144 11.83203125 164.37109375 C10.33820518 161.8771368 8.79846931 159.58981873 7 157.3125 C6.35675781 158.01375 5.71351563 158.715 5.05078125 159.4375 C-8.95757969 174.14527981 -26.50471695 182.76909218 -46.96484375 183.53125 C-63.73339684 183.92828954 -79.45791846 181.3928474 -92.19140625 169.34765625 C-103.2249325 156.93196041 -106.72205113 142.61952579 -106.12744141 126.40820312 C-105.28443455 112.54542371 -99.8434537 99.82345239 -89.55859375 90.37109375 C-70.32241702 74.89404774 -47.98300536 72.71885121 -24 74.3125 C-0.16264463 77.23117769 -0.16264463 77.23117769 6 80.3125 C5.91774287 76.39506108 5.80504015 72.47902648 5.6875 68.5625 C5.66494141 67.47066406 5.64238281 66.37882812 5.61914062 65.25390625 C5.27917219 54.80760333 4.17090793 41.34597123 -3.75390625 33.59765625 C-17.00776584 22.98938116 -33.94944078 24.47002929 -50 25.3125 C-55.87267122 25.96490116 -61.40704694 27.44908447 -67 29.3125 C-67.77037598 29.56402832 -68.54075195 29.81555664 -69.33447266 30.07470703 C-77.7441079 32.23664138 -77.7441079 32.23664138 -85 36.3125 C-88.4375 36.5625 -88.4375 36.5625 -92 36.3125 C-94.54400761 32.49648858 -94.33116914 29.35835144 -94.3125 24.9375 C-94.32861328 24.18210937 -94.34472656 23.42671875 -94.36132812 22.6484375 C-94.36533094 18.06921883 -94.07959533 14.93900021 -91 11.3125 C-67.28665567 -5.07448272 -26.94937335 -9.33748834 0 0 Z " fill="#FDFDFD" transform="translate(272,274.6875)"/>
<path d="M0 0 C3.90713699 4.01273528 3.4952884 8.07916211 3.5 13.375 C3.51224609 14.09945313 3.52449219 14.82390625 3.53710938 15.5703125 C3.54765833 19.38200298 3.4767464 21.1286304 1.3125 24.375 C-3.66407905 25.04672983 -7.11940645 23.57313947 -11.625 21.5625 C-28.93572126 14.3401461 -52.17853436 11.20953058 -70.1484375 18.0390625 C-76.15022872 21.19692804 -80.63542222 24.76926391 -82.6875 31.375 C-83.56706159 38.08744369 -83.48542265 44.08256354 -79.33984375 49.640625 C-70.32070821 59.10751904 -56.20454544 62.6960586 -44.02783203 66.41479492 C-1.35991132 79.46791153 -1.35991132 79.46791153 9.3125 99.375 C15.08720757 112.86336804 14.67322884 126.84974006 9.3125 140.375 C2.73842934 155.62587715 -9.88612559 164.34525552 -24.86328125 170.33203125 C-25.79527344 170.67621094 -26.72726562 171.02039063 -27.6875 171.375 C-28.54730469 171.70886719 -29.40710938 172.04273438 -30.29296875 172.38671875 C-55.6835565 179.77891518 -88.22159374 176.7738775 -111.6875 164.375 C-115.52385846 161.77949759 -117.54683617 159.90597021 -118.6875 155.375 C-118.95091095 152.47241393 -118.96714679 149.60029693 -118.9375 146.6875 C-118.94523438 145.91599609 -118.95296875 145.14449219 -118.9609375 144.34960938 C-118.94095092 138.62845092 -118.94095092 138.62845092 -116.6875 136.375 C-111.97777951 135.67355227 -109.18115814 136.46377016 -104.9375 138.5625 C-99.71343261 141.1127749 -94.48035782 142.67753915 -88.875 144.125 C-87.65635254 144.44053833 -87.65635254 144.44053833 -86.41308594 144.76245117 C-77.7898772 146.934242 -69.75979369 147.55751694 -60.875 147.5625 C-59.73740234 147.57474609 -58.59980469 147.58699219 -57.42773438 147.59960938 C-46.43141498 147.61864513 -35.32558571 146.35612052 -26.79296875 138.66796875 C-21.59992336 132.86843631 -20.27175021 127.74506849 -20.4375 120.02734375 C-20.88094284 115.32269242 -22.7958216 112.52555278 -25.625 108.875 C-36.63802662 99.88477419 -51.72220128 96.30684699 -65.19580078 92.53442383 C-83.25774655 87.44083012 -101.02512795 80.58690541 -110.6875 63.375 C-114.06574443 57.05953522 -116.34592879 51.54799536 -116.6875 44.375 C-116.73777344 43.62992187 -116.78804687 42.88484375 -116.83984375 42.1171875 C-117.38281976 28.60794434 -113.11484224 17.81605058 -104.359375 7.6796875 C-99.04876573 2.08517773 -93.58151397 -2.17254751 -86.6875 -5.625 C-85.94371094 -6.00269531 -85.19992187 -6.38039063 -84.43359375 -6.76953125 C-60.7567797 -17.46616298 -20.89032364 -16.15131504 0 0 Z " fill="#FDFDFD" transform="translate(705.6875,283.625)"/>
<path d="M0 0 C1.56814453 0.02707031 1.56814453 0.02707031 3.16796875 0.0546875 C11.75568696 0.48597615 23.58510984 2.971549 30 9 C36.59985598 28.79956794 26.55395203 54.78782223 17.95849609 72.58886719 C16.36748211 75.76176451 14.69731303 78.8824147 13 82 C12.52046875 82.90878906 12.0409375 83.81757812 11.546875 84.75390625 C6.37067131 94.02050079 -2.12641223 106.35360575 -12 111 C-15 110.875 -15 110.875 -17 110 C-18.87546416 104.80079659 -16.77345177 100.99220605 -14.75 96.1875 C-14.11937789 94.63949141 -13.48916663 93.09131539 -12.859375 91.54296875 C-12.54476318 90.77839355 -12.23015137 90.01381836 -11.90600586 89.22607422 C-9.13383348 82.41479214 -6.76384058 75.47401887 -4.4375 68.5 C-4.13392578 67.60152344 -3.83035156 66.70304688 -3.51757812 65.77734375 C-0.68045643 57.28452193 1.36000541 49.74675407 1.375 40.75 C1.41173828 39.56664062 1.41173828 39.56664062 1.44921875 38.359375 C1.46716984 34.81702603 1.42605396 32.65983741 -0.5234375 29.640625 C-7.08967956 25.29074855 -13.18205291 24.55570235 -20.84375 24.63671875 C-21.77110962 24.63622025 -22.69846924 24.63572174 -23.65393066 24.63520813 C-25.6104548 24.63753811 -27.56698253 24.64720269 -29.5234375 24.66381836 C-32.46382631 24.6872122 -35.40329284 24.68439481 -38.34375 24.67773438 C-48.23992404 24.69362244 -57.86462027 25.08952726 -67.65625 26.5612793 C-72.44765702 27.18994156 -77.17844213 27.18387297 -82 27 C-82.8125 24.8125 -82.8125 24.8125 -83 22 C-72.93441564 9.35052999 -51.69748811 3.22054265 -36.328125 1.3671875 C-34.63635813 1.19368575 -32.94356064 1.03001736 -31.25 0.875 C-30.34330566 0.79080811 -29.43661133 0.70661621 -28.50244141 0.61987305 C-18.99171002 -0.19201866 -9.53593925 -0.26420306 0 0 Z " fill="#FB9803" transform="translate(715,497)"/>
<path d="M0 0 C1.09068283 0.00823288 1.09068283 0.00823288 2.20339966 0.01663208 C27.41610119 0.20805059 27.41610119 0.20805059 35.875 4.4375 C36.42205538 17.84035691 36.8156828 31.85100787 27.5703125 42.69921875 C17.23117278 53.30041039 4.88230002 59.34422081 -10.10205078 59.73046875 C-18.79539168 59.80728201 -26.22989123 59.5680394 -33.17578125 53.70703125 C-40.2297632 46.39016799 -41.70306005 38.45811244 -41.68334961 28.53564453 C-41.36232265 20.74868296 -38.67221896 14.25520406 -33.33203125 8.5078125 C-23.61454847 0.45332162 -12.07220295 -0.20087059 0 0 Z " fill="#283342" transform="translate(242.125,372.5625)"/>
<path d="M0 0 C1.98 0 3.96 0 6 0 C5 8.57142857 5 8.57142857 4 12 C3.34 12 2.68 12 2 12 C0.70756464 7.8803623 -0.26252625 4.33168317 0 0 Z " fill="#5F6772" transform="translate(397,405)"/>
<path d="M0 0 C1.98 0 3.96 0 6 0 C5 8.57142857 5 8.57142857 4 12 C3.34 12 2.68 12 2 12 C0.86235649 7.73383684 0 4.43513689 0 0 Z " fill="#5D6671" transform="translate(500,407)"/>
</svg>
